<svg xmlns="http://www.w3.org/2000/svg" width="16" height="16" viewBox="0 0 466.678 466.678"><path d="M411.631,240.58L240.538,463.132c-1.714,2.234-4.386,3.546-7.196,3.546c-2.825,0-5.482-1.312-7.196-3.546L55.038,240.58 c-1.253-1.638-1.882-3.582-1.882-5.539c0-1.921,0.605-3.848,1.835-5.467c2.444-3.257,6.783-4.472,10.578-2.979l113.3,44.757 L178.856,9.079C178.868,4.061,182.923,0,187.947,0h90.774c5.024,0,9.079,4.061,9.091,9.079l-0.012,262.273l113.298-44.763 c3.8-1.492,8.139-0.278,10.592,2.985C414.149,232.837,414.138,237.341,411.631,240.58z" fill="#2e3436"/></svg>
