<?xml version="1.0" encoding="UTF-8"?>
<svg height="16px" viewBox="0 0 16 16" width="16px" xmlns="http://www.w3.org/2000/svg">
    <path d="m 12 1 v 2 h -12 v 2 h 12 v 2 h 1 v -0.007812 c 0.265625 0.003906 0.519531 -0.101563 0.707031 -0.285157 l 2 -2 c 0.390625 -0.390625 0.390625 -1.023437 0 -1.414062 l -2 -2 c -0.1875 -0.183594 -0.441406 -0.289063 -0.707031 -0.285157 v -0.007812 z m 0 8 v 2 h -12 v 2 h 12 v 2 h 1 v -0.007812 c 0.265625 0.003906 0.519531 -0.101563 0.707031 -0.285157 l 2 -2 c 0.390625 -0.390625 0.390625 -1.023437 0 -1.414062 l -2 -2 c -0.1875 -0.183594 -0.441406 -0.289063 -0.707031 -0.285157 v -0.007812 z m 0 0" fill="#2e3436"/>
</svg>
