<svg width="128px" height="128px" viewBox="0 0 128 128" xmlns="http://www.w3.org/2000/svg">
 <linearGradient id="a" x1="3.9999" x2="124" y1="235" y2="235" gradientTransform="matrix(.70711 .70711 -.70711 .70711 184.92 -148.42)" gradientUnits="userSpaceOnUse">
  <stop stop-color="#59cde7" offset="0"/>
  <stop stop-color="#1c71d8" offset="1"/>
 </linearGradient>
 <path d="m124 65c0 33.137-26.863 60-60 60s-60-26.863-60-60 26.863-60 60-60 60 26.863 60 60z" fill="#1a5fb4"/>
 <path d="m64 7c30.93 0 56 25.07 56 56v2c0 30.93-25.07 56-56 56s-56-25.07-56-56v-2c0-30.93 25.07-56 56-56z" fill="#d5d3cf"/>
 <path d="m106.43 105.43c-23.43 23.434-61.422 23.434-84.852 0-23.434-23.43-23.434-61.422 0-84.852 23.43-23.434 61.422-23.434 84.852 0 23.434 23.43 23.434 61.422 0 84.852z" fill="url(#a)"/>
 <g transform="translate(-8 -16)">
  <path d="m72 40c2.2109 0 4 1.7891 4 4v72c0 2.2109-1.7891 4-4 4s-4-1.7891-4-4v-72c0-2.2109 1.7891-4 4-4z" fill="#fff" fill-opacity=".55"/>
  <path d="m48 48c2.2109 0 4 1.7891 4 4v56c0 2.2109-1.7891 4-4 4s-4-1.7891-4-4v-56c0-2.2109 1.7891-4 4-4z" fill="#fff" fill-opacity=".55"/>
  <path d="m96 48c2.2109 0 4 1.7891 4 4v56c0 2.2109-1.7891 4-4 4s-4-1.7891-4-4v-56c0-2.2109 1.7891-4 4-4z" fill="#fff" fill-opacity=".55"/>
  <path d="m56 83c0 4.418-3.582 8-8 8s-8-3.582-8-8 3.582-8 8-8 8 3.582 8 8z" fill="#241f31" fill-opacity=".3"/>
  <path d="m80 65c0 4.418-3.582 8-8 8s-8-3.582-8-8 3.582-8 8-8 8 3.582 8 8z" fill="#241f31" fill-opacity=".3"/>
  <path d="m104 91c0 4.418-3.582 8-8 8s-8-3.582-8-8 3.582-8 8-8 8 3.582 8 8z" fill="#241f31" fill-opacity=".3"/>
 </g>
 <g fill="#fff">
  <path d="m48 64c0 4.418-3.582 8-8 8s-8-3.582-8-8 3.582-8 8-8 8 3.582 8 8z"/>
  <path d="m72 46c0 4.418-3.582 8-8 8s-8-3.582-8-8 3.582-8 8-8 8 3.582 8 8z"/>
  <path d="m96 72c0 4.418-3.582 8-8 8s-8-3.582-8-8 3.582-8 8-8 8 3.582 8 8z"/>
 </g>
</svg>
