<svg width="16px" height="16px" viewBox="0 0 16 16" xmlns="http://www.w3.org/2000/svg">
 <filter id="a" x="0%" y="0%" width="100%" height="100%">
  <feColorMatrix in="SourceGraphic" values="0 0 0 0 1 0 0 0 0 1 0 0 0 0 1 0 0 0 1 0"/>
 </filter>
 <mask id="b">
  <g filter="url(#a)">
   <rect width="16" height="16" fill-opacity=".55"/>
  </g>
 </mask>
 <clipPath id="c">
  <rect width="192" height="152"/>
 </clipPath>
 <mask id="d">
  <g filter="url(#a)">
   <rect width="16" height="16" fill-opacity=".55"/>
  </g>
 </mask>
 <clipPath id="e">
  <rect width="192" height="152"/>
 </clipPath>
 <mask id="f">
  <g filter="url(#a)">
   <rect width="16" height="16" fill-opacity=".55"/>
  </g>
 </mask>
 <clipPath id="g">
  <rect width="192" height="152"/>
 </clipPath>
 <mask id="h">
  <g filter="url(#a)">
   <rect width="16" height="16" fill-opacity=".3"/>
  </g>
 </mask>
 <clipPath id="i">
  <rect width="192" height="152"/>
 </clipPath>
 <mask id="j">
  <g filter="url(#a)">
   <rect width="16" height="16" fill-opacity=".3"/>
  </g>
 </mask>
 <clipPath id="k">
  <rect width="192" height="152"/>
 </clipPath>
 <mask id="l">
  <g filter="url(#a)">
   <rect width="16" height="16" fill-opacity=".3"/>
  </g>
 </mask>
 <clipPath id="m">
  <rect width="192" height="152"/>
 </clipPath>
 <g transform="translate(-168 -16)" clip-path="url(#c)" mask="url(#b)">
  <path d="m72 40c2.2109 0 4 1.7891 4 4v72c0 2.2109-1.7891 4-4 4s-4-1.7891-4-4v-72c0-2.2109 1.7891-4 4-4z" fill="#fff"/>
 </g>
 <g transform="translate(-168 -16)" clip-path="url(#e)" mask="url(#d)">
  <path d="m48 48c2.2109 0 4 1.7891 4 4v56c0 2.2109-1.7891 4-4 4s-4-1.7891-4-4v-56c0-2.2109 1.7891-4 4-4z" fill="#fff"/>
 </g>
 <g transform="translate(-168 -16)" clip-path="url(#g)" mask="url(#f)">
  <path d="m96 48c2.2109 0 4 1.7891 4 4v56c0 2.2109-1.7891 4-4 4s-4-1.7891-4-4v-56c0-2.2109 1.7891-4 4-4z" fill="#fff"/>
 </g>
 <g transform="translate(-168 -16)" clip-path="url(#i)" mask="url(#h)">
  <path d="m56 83c0 4.418-3.582 8-8 8s-8-3.582-8-8 3.582-8 8-8 8 3.582 8 8z" fill="#241f31"/>
 </g>
 <g transform="translate(-168 -16)" clip-path="url(#k)" mask="url(#j)">
  <path d="m80 65c0 4.418-3.582 8-8 8s-8-3.582-8-8 3.582-8 8-8 8 3.582 8 8z" fill="#241f31"/>
 </g>
 <g transform="translate(-168 -16)" clip-path="url(#m)" mask="url(#l)">
  <path d="m104 91c0 4.418-3.582 8-8 8s-8-3.582-8-8 3.582-8 8-8 8 3.582 8 8z" fill="#241f31"/>
 </g>
 <g fill="#241f31">
  <path d="m5 8c0 1.1055-0.89453 2-2 2s-2-0.89453-2-2 0.89453-2 2-2 2 0.89453 2 2z"/>
  <path d="m10 6c0 1.1055-0.89453 2-2 2s-2-0.89453-2-2 0.89453-2 2-2 2 0.89453 2 2z"/>
  <path d="m15 9c0 1.1055-0.89453 2-2 2s-2-0.89453-2-2 0.89453-2 2-2 2 0.89453 2 2z"/>
  <path d="m2 5h2v4h-2z"/>
  <path d="m4 5c0 0.55078-0.44922 1-1 1s-1-0.44922-1-1 0.44922-1 1-1 1 0.44922 1 1z"/>
  <path d="m7 3h2v3h-2z"/>
  <path d="m7 3c0-0.55078 0.44922-1 1-1s1 0.44922 1 1"/>
  <path d="m2 13h2v-2h-2z"/>
  <path d="m4 13c0-0.55078-0.44922-1-1-1s-1 0.44922-1 1 0.44922 1 1 1 1-0.44922 1-1z"/>
  <path d="m7 14h2v-5h-2z"/>
  <path d="m9 14c0-0.55078-0.44922-1-1-1s-1 0.44922-1 1 0.44922 1 1 1 1-0.44922 1-1z"/>
  <path d="m12 13h2v-1h-2z"/>
  <path d="m14 13c0-0.55078-0.44922-1-1-1s-1 0.44922-1 1 0.44922 1 1 1 1-0.44922 1-1z"/>
  <path d="m12 5h2v4h-2z"/>
  <path d="m14 5c0 0.55078-0.44922 1-1 1s-1-0.44922-1-1 0.44922-1 1-1 1 0.44922 1 1z"/>
 </g>
</svg>
