<?xml version="1.0" encoding="UTF-8"?>
<svg height="128px" viewBox="0 0 128 128" width="128px" xmlns="http://www.w3.org/2000/svg" xmlns:xlink="http://www.w3.org/1999/xlink">
    <linearGradient id="a" gradientTransform="matrix(0.707107 0.707107 -0.707107 0.707107 184.915241 -148.424882)" gradientUnits="userSpaceOnUse" x1="3.999938" x2="123.999931" y1="235" y2="235">
        <stop offset="0" stop-color="#59cde7"/>
        <stop offset="1" stop-color="#1c71d8"/>
    </linearGradient>
    <filter id="b" height="100%" width="100%" x="0%" y="0%">
        <feColorMatrix in="SourceGraphic" type="matrix" values="0 0 0 0 1 0 0 0 0 1 0 0 0 0 1 0 0 0 1 0"/>
    </filter>
    <mask id="c">
        <g filter="url(#b)">
            <rect fill-opacity="0.55" height="128" width="128"/>
        </g>
    </mask>
    <clipPath id="d">
        <rect height="152" width="192"/>
    </clipPath>
    <mask id="e">
        <g filter="url(#b)">
            <rect fill-opacity="0.55" height="128" width="128"/>
        </g>
    </mask>
    <clipPath id="f">
        <rect height="152" width="192"/>
    </clipPath>
    <mask id="g">
        <g filter="url(#b)">
            <rect fill-opacity="0.55" height="128" width="128"/>
        </g>
    </mask>
    <clipPath id="h">
        <rect height="152" width="192"/>
    </clipPath>
    <mask id="i">
        <g filter="url(#b)">
            <rect fill-opacity="0.3" height="128" width="128"/>
        </g>
    </mask>
    <clipPath id="j">
        <rect height="152" width="192"/>
    </clipPath>
    <mask id="k">
        <g filter="url(#b)">
            <rect fill-opacity="0.3" height="128" width="128"/>
        </g>
    </mask>
    <clipPath id="l">
        <rect height="152" width="192"/>
    </clipPath>
    <mask id="m">
        <g filter="url(#b)">
            <rect fill-opacity="0.3" height="128" width="128"/>
        </g>
    </mask>
    <clipPath id="n">
        <rect height="152" width="192"/>
    </clipPath>
    <path d="m 124 65 c 0 33.136719 -26.863281 60 -60 60 s -60 -26.863281 -60 -60 s 26.863281 -60 60 -60 s 60 26.863281 60 60 z m 0 0" fill="#1a5fb4"/>
    <path d="m 64 7 c 30.929688 0 56 25.070312 56 56 v 2 c 0 30.929688 -25.070312 56 -56 56 s -56 -25.070312 -56 -56 v -2 c 0 -30.929688 25.070312 -56 56 -56 z m 0 0" fill="#d5d3cf"/>
    <path d="m 106.425781 105.425781 c -23.429687 23.433594 -61.421875 23.433594 -84.851562 0 c -23.433594 -23.429687 -23.433594 -61.421875 0 -84.851562 c 23.429687 -23.433594 61.421875 -23.433594 84.851562 0 c 23.433594 23.429687 23.433594 61.421875 0 84.851562 z m 0 0" fill="url(#a)"/>
    <g clip-path="url(#d)" mask="url(#c)" transform="matrix(1 0 0 1 -8 -16)">
        <path d="m 72 40 c 2.210938 0 4 1.789062 4 4 v 72 c 0 2.210938 -1.789062 4 -4 4 s -4 -1.789062 -4 -4 v -72 c 0 -2.210938 1.789062 -4 4 -4 z m 0 0" fill="#ffffff"/>
    </g>
    <g clip-path="url(#f)" mask="url(#e)" transform="matrix(1 0 0 1 -8 -16)">
        <path d="m 48 48 c 2.210938 0 4 1.789062 4 4 v 56 c 0 2.210938 -1.789062 4 -4 4 s -4 -1.789062 -4 -4 v -56 c 0 -2.210938 1.789062 -4 4 -4 z m 0 0" fill="#ffffff"/>
    </g>
    <g clip-path="url(#h)" mask="url(#g)" transform="matrix(1 0 0 1 -8 -16)">
        <path d="m 96 48 c 2.210938 0 4 1.789062 4 4 v 56 c 0 2.210938 -1.789062 4 -4 4 s -4 -1.789062 -4 -4 v -56 c 0 -2.210938 1.789062 -4 4 -4 z m 0 0" fill="#ffffff"/>
    </g>
    <g clip-path="url(#j)" mask="url(#i)" transform="matrix(1 0 0 1 -8 -16)">
        <path d="m 56 83 c 0 4.417969 -3.582031 8 -8 8 s -8 -3.582031 -8 -8 s 3.582031 -8 8 -8 s 8 3.582031 8 8 z m 0 0" fill="#241f31"/>
    </g>
    <g clip-path="url(#l)" mask="url(#k)" transform="matrix(1 0 0 1 -8 -16)">
        <path d="m 80 65 c 0 4.417969 -3.582031 8 -8 8 s -8 -3.582031 -8 -8 s 3.582031 -8 8 -8 s 8 3.582031 8 8 z m 0 0" fill="#241f31"/>
    </g>
    <g clip-path="url(#n)" mask="url(#m)" transform="matrix(1 0 0 1 -8 -16)">
        <path d="m 104 91 c 0 4.417969 -3.582031 8 -8 8 s -8 -3.582031 -8 -8 s 3.582031 -8 8 -8 s 8 3.582031 8 8 z m 0 0" fill="#241f31"/>
    </g>
    <g fill="#ffffff">
        <path d="m 48 64 c 0 4.417969 -3.582031 8 -8 8 s -8 -3.582031 -8 -8 s 3.582031 -8 8 -8 s 8 3.582031 8 8 z m 0 0"/>
        <path d="m 72 46 c 0 4.417969 -3.582031 8 -8 8 s -8 -3.582031 -8 -8 s 3.582031 -8 8 -8 s 8 3.582031 8 8 z m 0 0"/>
        <path d="m 96 72 c 0 4.417969 -3.582031 8 -8 8 s -8 -3.582031 -8 -8 s 3.582031 -8 8 -8 s 8 3.582031 8 8 z m 0 0"/>
    </g>
</svg>
