<svg height="512" width="512" xmlns="http://www.w3.org/2000/svg" xmlns:xlink="http://www.w3.org/1999/xlink">
    <linearGradient id="b" gradientUnits="userSpaceOnUse" x1="409.397" x2="409.697" y1="546.319" y2="501.277">
        <stop offset="0" stop-color="#0c89ca"/>
        <stop offset="1" stop-color="#00ebfa"/>
    </linearGradient>
    <linearGradient id="e" gradientUnits="userSpaceOnUse" x1="407.829" x2="408.066" xlink:href="#a" y1="546.344" y2="500.72"/>
    <linearGradient id="c" gradientUnits="userSpaceOnUse" x1="409.397" x2="409.697" xlink:href="#b" y1="546.319" y2="501.277"/>
    <linearGradient id="d" gradientUnits="userSpaceOnUse" x1="13.28" x2="38.029" y1="10.598" y2="38.117">
        <stop offset="0" stop-opacity=".137"/>
        <stop offset="1" stop-opacity=".059"/>
    </linearGradient>
    <linearGradient id="f" gradientUnits="userSpaceOnUse" x1="409.827" x2="410.06" y1="539.741" y2="507.724">
        <stop offset="0" stop-color="#f4f4f4"/>
        <stop offset="1" stop-color="#fff"/>
    </linearGradient>
    <linearGradient id="a">
        <stop offset="0" stop-color="#ececec"/>
        <stop offset="1" stop-color="#fff"/>
    </linearGradient>
    <g transform="translate(-4184.994 -5437.456) scale(10.86956)">
        <rect fill="url(#c)" height="45.042" ry="22.521" width="45.042" x="386.051" y="501.277"/>
        <path d="M30.406 8.652l-.453.055c-.19.023-.24.876-.113 1.912l.96 7.875-8.843-8.844c-.002-.002-.004-.001-.006-.004-.027-.025-.053-.038-.078-.035l-.457.055c-.19.024-.238.879-.111 1.918l.103.861a1.932 1.932 0 0 0 .447 3.668l.418 3.432-8.908-8.908-.006-.004c-.027-.025-.053-.038-.078-.035l-.457.054c-.19.023-.242.88-.115 1.918l1.986 16.28a1.932 1.932 0 0 0 .45 3.664l.609 4.998c.05.413.122.771.201 1.076.014.053.025.108.04.156.018.067.038.12.058.176.03.088.06.163.091.225.03.058.058.115.086.146.004.004.007.014.01.018l.006.004.006.005 6.547 6.547c4.084-.664 10.584-2.156 14.82-5.862 4.882-4.27 7.272-11.03 7.922-15.444 0-.281-.01-.56-.021-.838L30.49 8.69l-.006-.004c-.027-.025-.053-.038-.078-.035zm-6.45 6.34l-.96.973a1.94 1.94 0 0 0 .96-.973z" fill="url(#d)" transform="translate(383.48 498.707) scale(1.04545)"/>
        <path d="M408.571 500.798c-12.69 0-23 10.309-23 23s10.31 23 23 23c12.692 0 23-10.309 23-23s-10.308-23-23-23zm0 1.917c11.656 0 21.084 9.427 21.084 21.083s-9.428 21.083-21.084 21.083c-11.655 0-21.083-9.427-21.083-21.083s9.428-21.083 21.083-21.083z" fill="url(#e)"/>
        <path d="M415.268 507.753l-.474.057c-.198.024-.25.916-.118 1.999l2.946 24.145a2.014 2.014 0 0 0-1.188 2.081 2.014 2.014 0 0 0 2.244 1.758 2.014 2.014 0 0 0 1.756-2.244 2.014 2.014 0 0 0-1.62-1.735l-2.948-24.15c-.132-1.083-.4-1.935-.598-1.911zm-8.921 1.002l-.478.057c-.198.025-.249.92-.116 2.006l.108.9a2.02 2.02 0 0 0-1.186 2.091 2.02 2.02 0 0 0 1.654 1.744l2.603 21.342c.133 1.086.4 1.941.598 1.917l.478-.06c.198-.024.249-.918.116-2.004l-2.603-21.35a2.02 2.02 0 0 0 1.164-2.079 2.02 2.02 0 0 0-1.63-1.738l-.112-.91c-.132-1.087-.398-1.94-.596-1.916zm-8.982 1.031l-.478.058c-.199.023-.253.919-.12 2.005l2.076 17.019a2.02 2.02 0 0 0-1.18 2.089 2.02 2.02 0 0 0 1.65 1.742l.637 5.225c.132 1.086.4 1.944.598 1.92l.476-.062c.198-.024.253-.92.12-2.005l-.639-5.232a2.02 2.02 0 0 0 1.168-2.08 2.02 2.02 0 0 0-1.633-1.74l-2.08-17.023c-.132-1.086-.397-1.94-.595-1.916z" fill="url(#f)"/>
    </g>
</svg>
