<?xml version="1.0" encoding="UTF-8" standalone="no"?>
<!-- Created with Inkscape (http://www.inkscape.org/) -->

<svg
   xmlns:dc="http://purl.org/dc/elements/1.1/"
   xmlns:cc="http://creativecommons.org/ns#"
   xmlns:rdf="http://www.w3.org/1999/02/22-rdf-syntax-ns#"
   xmlns:svg="http://www.w3.org/2000/svg"
   xmlns="http://www.w3.org/2000/svg"
   xmlns:sodipodi="http://sodipodi.sourceforge.net/DTD/sodipodi-0.dtd"
   xmlns:inkscape="http://www.inkscape.org/namespaces/inkscape"
   sodipodi:docname="pulseeffects-sine-symbolic.svg"
   inkscape:version="0.92.2 5c3e80d, 2017-08-06"
   id="svg8"
   version="1.1"
   viewBox="0 0 4.2333332 4.2333335"
   height="16"
   width="16">
  <sodipodi:namedview
     inkscape:window-maximized="1"
     inkscape:window-y="27"
     inkscape:window-x="0"
     inkscape:window-height="1016"
     inkscape:window-width="2560"
     units="px"
     showgrid="false"
     inkscape:current-layer="layer1"
     inkscape:document-units="mm"
     inkscape:cy="7.8707657"
     inkscape:cx="6.6574816"
     inkscape:zoom="36.10664"
     inkscape:pageshadow="2"
     inkscape:pageopacity="0.0"
     borderopacity="1.0"
     bordercolor="#666666"
     pagecolor="#ffffff"
     id="base" />
  <defs
     id="defs2" />
  <metadata
     id="metadata5">
    <rdf:RDF>
      <cc:Work
         rdf:about="">
        <dc:format>image/svg+xml</dc:format>
        <dc:type
           rdf:resource="http://purl.org/dc/dcmitype/StillImage" />
        <dc:title />
      </cc:Work>
    </rdf:RDF>
  </metadata>
  <g
     inkscape:label="Layer 1"
     inkscape:groupmode="layer"
     id="layer1"
     transform="translate(0,-292.76665)">
    <path
       style="color:#000000;font-style:normal;font-variant:normal;font-weight:normal;font-stretch:normal;font-size:medium;line-height:normal;font-family:sans-serif;font-variant-ligatures:normal;font-variant-position:normal;font-variant-caps:normal;font-variant-numeric:normal;font-variant-alternates:normal;font-feature-settings:normal;text-indent:0;text-align:start;text-decoration:none;text-decoration-line:none;text-decoration-style:solid;text-decoration-color:#000000;letter-spacing:normal;word-spacing:normal;text-transform:none;writing-mode:lr-tb;direction:ltr;text-orientation:mixed;dominant-baseline:auto;baseline-shift:baseline;text-anchor:start;white-space:normal;shape-padding:0;clip-rule:nonzero;display:inline;overflow:visible;visibility:visible;opacity:1;isolation:auto;mix-blend-mode:normal;color-interpolation:sRGB;color-interpolation-filters:linearRGB;solid-color:#000000;solid-opacity:1;vector-effect:none;fill:#bebebe;fill-opacity:1;fill-rule:nonzero;stroke:none;stroke-width:0.55491;stroke-linecap:butt;stroke-linejoin:miter;stroke-miterlimit:4;stroke-dasharray:none;stroke-dashoffset:0;stroke-opacity:1;color-rendering:auto;image-rendering:auto;shape-rendering:auto;text-rendering:auto;enable-background:accumulate"
       d="m 3.0664062,292.76953 c -0.024585,0 -0.082867,-0.003 -0.15625,0.0195 -0.057407,0.0173 -0.107519,0.0433 -0.1523437,0.0742 l -0.00195,0.002 c -0.044202,0.0309 -0.083009,0.0664 -0.1191406,0.10547 -0.035789,0.0386 -0.07015,0.0796 -0.1015626,0.125 v 0.002 c -0.030775,0.0446 -0.060907,0.0927 -0.089844,0.14453 h 0.00195 c -0.028675,0.0512 -0.056529,0.10434 -0.083984,0.16211 -0.027365,0.0576 -0.055527,0.11871 -0.082031,0.18164 -0.02674,0.0635 -0.05215,0.12941 -0.078125,0.19726 -0.026072,0.0683 -0.052283,0.14005 -0.078125,0.21289 -0.02579,0.0726 -0.05255,0.14682 -0.078125,0.22266 -0.025607,0.0759 -0.050839,0.15293 -0.076172,0.23047 -0.02541,0.0779 -0.050934,0.15572 -0.076172,0.23437 -0.025252,0.0787 -0.049077,0.15788 -0.074219,0.23633 -0.025154,0.0784 -0.051262,0.15618 -0.076172,0.23242 -0.024974,0.0766 -0.04941,0.153 -0.074219,0.22657 -0.024785,0.0735 -0.049581,0.14539 -0.074219,0.21484 -0.024632,0.0694 -0.048119,0.13614 -0.072266,0.19922 -0.024369,0.0638 -0.048702,0.12384 -0.072266,0.17969 -0.023805,0.0566 -0.047236,0.10965 -0.070312,0.1582 -0.022861,0.0481 -0.046492,0.0917 -0.068359,0.13086 -0.021508,0.0385 -0.041313,0.0718 -0.060547,0.0996 -0.019067,0.0275 -0.037847,0.0503 -0.052734,0.0664 -0.0019,0.002 -0.00213,0.002 -0.00391,0.004 -0.00879,-0.009 -0.016179,-0.0172 -0.027344,-0.0312 -0.017305,-0.022 -0.035947,-0.0506 -0.056641,-0.084 -0.020967,-0.0341 -0.042252,-0.0719 -0.064453,-0.11524 -0.022401,-0.0436 -0.0468949,-0.0919 -0.0703125,-0.14453 -0.0234903,-0.0527 -0.0463336,-0.10976 -0.0703125,-0.16992 -0.0240622,-0.0603 -0.0478304,-0.12486 -0.0722656,-0.19141 -0.0244854,-0.0667 -0.0495825,-0.13553 -0.0742188,-0.20703 -0.0246796,-0.0715 -0.0492623,-0.14541 -0.0742187,-0.2207 -0.0248525,-0.0751 -0.051048,-0.15082 -0.0761719,-0.22852 -0.0250494,-0.0776 -0.0490226,-0.15761 -0.0742188,-0.23633 l -0.52929687,0.16993 c 0.02518342,0.0787 0.05084145,0.15782 0.07617187,0.23632 0.02525594,0.0781 0.05064476,0.1553 0.07617187,0.23243 v 0.002 c 0.025423,0.0767 0.0504721,0.1521 0.0761719,0.22656 0.0257432,0.0747 0.0522304,0.1463 0.078125,0.2168 0.0259444,0.0707 0.0518074,0.13917 0.078125,0.20508 0.0264007,0.0662 0.0531886,0.12912 0.0800781,0.18945 0.0269618,0.0606 0.0540527,0.11937 0.0820313,0.17383 0.0281784,0.055 0.0565244,0.10457 0.0859375,0.15234 v 0.002 c 0.0296852,0.048 0.0606752,0.0928 0.09375,0.13476 0.0332769,0.042 0.0698697,0.0819 0.109375,0.11719 0.039143,0.0345 0.0827887,0.0658 0.13476562,0.0918 l 0.003906,0.002 0.001953,0.002 c 0.045719,0.0218 0.10194372,0.0407 0.16992192,0.0469 l 0.00195,0.002 c 0.05436,0.004 0.1184229,-0.001 0.1816406,-0.0215 0.052524,-0.0167 0.1040518,-0.042 0.1503906,-0.0742 0.045117,-0.0314 0.084521,-0.0676 0.1210938,-0.10743 0.035491,-0.0385 0.068296,-0.0799 0.099609,-0.125 0.031146,-0.045 0.060974,-0.0928 0.089844,-0.14453 0.028512,-0.051 0.056463,-0.10613 0.083984,-0.16406 0.027302,-0.0575 0.053501,-0.11651 0.080078,-0.17969 0.026814,-0.0636 0.054067,-0.13114 0.080078,-0.19922 0.026232,-0.0685 0.052379,-0.13844 0.078125,-0.21093 0.02574,-0.0726 0.050577,-0.14676 0.076172,-0.22266 0.025572,-0.0758 0.050766,-0.15253 0.076172,-0.23047 0.025468,-0.0779 0.050946,-0.15768 0.076172,-0.23633 0.025236,-0.0787 0.051042,-0.15798 0.076172,-0.23632 0.02514,-0.0784 0.049247,-0.15583 0.074219,-0.23243 0.025045,-0.0767 0.051399,-0.15113 0.076172,-0.22461 0.024805,-0.0736 0.049627,-0.14561 0.074219,-0.21484 0.024538,-0.0692 0.04796,-0.13556 0.072266,-0.19922 0.024403,-0.0637 0.048623,-0.12547 0.072266,-0.18164 0.023873,-0.0567 0.047295,-0.10978 0.070312,-0.1582 0.022923,-0.0482 0.044704,-0.0921 0.066406,-0.13086 h 0.00195 c 0.021441,-0.0384 0.040942,-0.0712 0.060547,-0.0996 0.018968,-0.0274 0.03619,-0.0487 0.050781,-0.0644 0.0018,-0.002 0.00221,-0.002 0.00391,-0.004 0.00851,0.009 0.017148,0.0159 0.029297,0.0312 0.01675,0.0211 0.035879,0.0484 0.056641,0.082 v 0.002 c 0.020239,0.0326 0.042053,0.0715 0.064453,0.11524 0.022626,0.0442 0.04498,0.092 0.068359,0.14453 0.023482,0.0528 0.048182,0.10968 0.072266,0.16992 0.024041,0.0602 0.04778,0.12286 0.072266,0.18945 0.024393,0.0663 0.049493,0.13737 0.074219,0.20899 0.02468,0.0714 0.049313,0.14346 0.074219,0.21875 v 0.002 c 0.02484,0.075 0.049145,0.15081 0.074219,0.22852 0.02498,0.0772 0.050947,0.15555 0.076172,0.23437 l 0.5292968,-0.16797 c -0.025157,-0.0786 -0.050774,-0.15778 -0.076172,-0.23632 -0.025305,-0.0784 -0.050634,-0.15733 -0.076172,-0.23438 -0.025476,-0.077 -0.052425,-0.15219 -0.078125,-0.22656 -0.025654,-0.0743 -0.050187,-0.14809 -0.076172,-0.21875 -0.025896,-0.0704 -0.051788,-0.1391 -0.078125,-0.20508 -0.026298,-0.0658 -0.053182,-0.12902 -0.080078,-0.18945 -0.027001,-0.0606 -0.054279,-0.11767 -0.082031,-0.17188 -0.02798,-0.0547 -0.057749,-0.10571 -0.087891,-0.15429 h 0.00195 c -0.029618,-0.0479 -0.062073,-0.0923 -0.095703,-0.13477 -0.032749,-0.0413 -0.067755,-0.0805 -0.109375,-0.11719 -0.038111,-0.0338 -0.081078,-0.0683 -0.1386718,-0.0957 -0.044094,-0.021 -0.1013557,-0.0431 -0.1738282,-0.0488 h -0.00977 z"
       id="path872"
       inkscape:connector-curvature="0" />
  </g>
</svg>
