<?xml version="1.0" encoding="UTF-8" standalone="no"?>
<!-- Created with Inkscape (http://www.inkscape.org/) -->

<svg
   xmlns:dc="http://purl.org/dc/elements/1.1/"
   xmlns:cc="http://creativecommons.org/ns#"
   xmlns:rdf="http://www.w3.org/1999/02/22-rdf-syntax-ns#"
   xmlns:svg="http://www.w3.org/2000/svg"
   xmlns="http://www.w3.org/2000/svg"
   xmlns:sodipodi="http://sodipodi.sourceforge.net/DTD/sodipodi-0.dtd"
   xmlns:inkscape="http://www.inkscape.org/namespaces/inkscape"
   sodipodi:docname="pulseeffects-s-symbolic.svg"
   inkscape:version="0.92.2 2405546, 2018-03-11"
   id="svg8"
   version="1.1"
   viewBox="0 0 4.2333332 4.2333335"
   height="16"
   width="16">
  <sodipodi:namedview
     inkscape:window-maximized="1"
     inkscape:window-y="27"
     inkscape:window-x="0"
     inkscape:window-height="1016"
     inkscape:window-width="2560"
     units="px"
     showgrid="true"
     inkscape:current-layer="text854"
     inkscape:document-units="mm"
     inkscape:cy="7.9217604"
     inkscape:cx="4.0880196"
     inkscape:zoom="51.125"
     inkscape:pageshadow="2"
     inkscape:pageopacity="0.0"
     borderopacity="1.0"
     bordercolor="#666666"
     pagecolor="#ffffff"
     id="base"
     inkscape:measure-start="0,0"
     inkscape:measure-end="0,0">
    <inkscape:grid
       type="xygrid"
       id="grid840" />
  </sodipodi:namedview>
  <defs
     id="defs2" />
  <metadata
     id="metadata5">
    <rdf:RDF>
      <cc:Work
         rdf:about="">
        <dc:format>image/svg+xml</dc:format>
        <dc:type
           rdf:resource="http://purl.org/dc/dcmitype/StillImage" />
        <dc:title />
      </cc:Work>
    </rdf:RDF>
  </metadata>
  <g
     transform="translate(0,-292.76665)"
     id="layer1"
     inkscape:groupmode="layer"
     inkscape:label="Layer 1">
    <g
       id="text816"
       style="font-style:normal;font-weight:normal;font-size:4.4023118px;line-height:1.25;font-family:sans-serif;letter-spacing:0px;word-spacing:0px;fill:#bebebe;fill-opacity:1;stroke:none;stroke-width:0.82543337"
       transform="scale(0.80481795,1.242517)"
       aria-label="dB">
      <g
         id="text825"
         style="font-style:normal;font-variant:normal;font-weight:normal;font-stretch:normal;font-size:4.2790556px;line-height:1.25;font-family:serif;-inkscape-font-specification:serif;letter-spacing:0px;word-spacing:0px;fill:#bebebe;fill-opacity:1;stroke:none;stroke-width:0.17217478"
         transform="scale(0.97200187,1.0288046)"
         aria-label="dB">
        <g
           aria-label="dB"
           transform="scale(1.0738534,0.93122579)"
           style="font-style:normal;font-variant:normal;font-weight:normal;font-stretch:normal;font-size:4.59507847px;line-height:1.25;font-family:monospace;-inkscape-font-specification:monospace;text-align:start;letter-spacing:0px;word-spacing:0px;writing-mode:lr-tb;text-anchor:start;fill:#bebebe;fill-opacity:1;stroke:none;stroke-width:0.04944729"
           id="text854">
          <g
             aria-label="s"
             transform="matrix(1.1903927,0,0,0.84005892,-0.03702099,-0.00642601)"
             style="font-style:normal;font-variant:normal;font-weight:normal;font-stretch:normal;font-size:4.23333359px;line-height:1.25;font-family:sans-serif;-inkscape-font-specification:sans-serif;letter-spacing:0px;word-spacing:0px;fill:#bebebe;fill-opacity:1;stroke:none;stroke-width:0.01308293"
             id="text824">
            <path
               d="m 2.9084436,293.79965 v 0.35967 q -0.1612305,-0.0827 -0.3348633,-0.12403 -0.1736328,-0.0413 -0.359668,-0.0413 -0.2831869,0 -0.4258138,0.0868 -0.1405599,0.0868 -0.1405599,0.26045 0,0.13229 0.1012858,0.20877 0.1012858,0.0744 0.4072103,0.14263 l 0.1302246,0.0289 q 0.4051433,0.0868 0.574642,0.24598 0.1715657,0.15709 0.1715657,0.44028 0,0.32246 -0.2563151,0.51056 -0.2542481,0.1881 -0.7007325,0.1881 -0.1860351,0 -0.3886068,-0.0372 -0.2005045,-0.0351 -0.4237467,-0.10749 v -0.39274 q 0.2108398,0.10955 0.4154785,0.16536 0.2046387,0.0537 0.4051433,0.0537 0.2687174,0 0.4134115,-0.091 0.144694,-0.093 0.144694,-0.26045 0,-0.15503 -0.10542,-0.23771 -0.1033528,-0.0827 -0.4568196,-0.15917 l -0.1322917,-0.031 q -0.3534668,-0.0744 -0.5105632,-0.22738 -0.1570964,-0.15503 -0.1570964,-0.42375 0,-0.32659 0.2315105,-0.50436 0.2315104,-0.17777 0.6573242,-0.17777 0.2108399,0 0.396875,0.031 0.1860352,0.031 0.3431316,0.093 z"
               style="fill:#bebebe;fill-opacity:1;stroke-width:0.01308293"
               id="path829"
               inkscape:connector-curvature="0" />
          </g>
        </g>
      </g>
    </g>
  </g>
</svg>
