<?xml version="1.0" encoding="UTF-8" standalone="no"?>
<!-- Created with Inkscape (http://www.inkscape.org/) -->

<svg
   xmlns:dc="http://purl.org/dc/elements/1.1/"
   xmlns:cc="http://creativecommons.org/ns#"
   xmlns:rdf="http://www.w3.org/1999/02/22-rdf-syntax-ns#"
   xmlns:svg="http://www.w3.org/2000/svg"
   xmlns="http://www.w3.org/2000/svg"
   xmlns:sodipodi="http://sodipodi.sourceforge.net/DTD/sodipodi-0.dtd"
   xmlns:inkscape="http://www.inkscape.org/namespaces/inkscape"
   width="16"
   height="16"
   viewBox="0 0 4.2333332 4.2333335"
   version="1.1"
   id="svg8"
   inkscape:version="0.92.2 5c3e80d, 2017-08-06"
   sodipodi:docname="pulseeffects-sine-symbolic.svg">
  <sodipodi:namedview
     id="base"
     pagecolor="#ffffff"
     bordercolor="#666666"
     borderopacity="1.0"
     inkscape:pageopacity="0.0"
     inkscape:pageshadow="2"
     inkscape:zoom="25.4375"
     inkscape:cx="10.415599"
     inkscape:cy="9.0223768"
     inkscape:document-units="mm"
     inkscape:current-layer="layer1"
     showgrid="false"
     units="px"
     inkscape:window-width="2560"
     inkscape:window-height="1016"
     inkscape:window-x="0"
     inkscape:window-y="27"
     inkscape:window-maximized="1" />
  <defs
     id="defs2" />
  <metadata
     id="metadata5">
    <rdf:RDF>
      <cc:Work
         rdf:about="">
        <dc:format>image/svg+xml</dc:format>
        <dc:type
           rdf:resource="http://purl.org/dc/dcmitype/StillImage" />
        <dc:title />
      </cc:Work>
    </rdf:RDF>
  </metadata>
  <g
     transform="translate(0,-292.76665)"
     id="layer1"
     inkscape:groupmode="layer"
     inkscape:label="Layer 1">
    <path
       id="path875"
       title="t 0.5 * sin(t)"
       d="m 0.00787071,294.88834 c 0.02876189,0.0902 0.05752368,0.18043 0.08628557,0.27004 0.02876189,0.0895 0.05752368,0.17821 0.08628557,0.2656 0.028762,0.0875 0.0575238,0.17323 0.0862856,0.25682 0.0287624,0.0836 0.0575238,0.16522 0.0862862,0.24378 0.0287624,0.0786 0.0575238,0.15443 0.0862851,0.2268 0.0287624,0.0725 0.0575238,0.14121 0.0862852,0.20604 0.0287624,0.0648 0.0575238,0.12559 0.0862862,0.18202 0.0287624,0.0561 0.0575238,0.10796 0.0862852,0.15482 0.0287624,0.0469 0.0575238,0.0886 0.0862851,0.1252 0.0287624,0.0366 0.0575238,0.0677 0.0862852,0.0935 0.0287624,0.0258 0.0575238,0.0458 0.0862851,0.0602 0.0287624,0.014 0.0575237,0.023 0.0862852,0.026 0.028762,0.003 0.057524,-3e-5 0.086286,-0.008 0.028762,-0.008 0.057524,-0.023 0.086285,-0.0432 0.028763,-0.02 0.057524,-0.0458 0.086285,-0.077 0.028762,-0.0312 0.057524,-0.0678 0.086285,-0.10967 0.028763,-0.0418 0.057524,-0.0886 0.086285,-0.14022 0.028762,-0.0516 0.057524,-0.10797 0.086285,-0.16882 0.028762,-0.0606 0.057524,-0.12559 0.086285,-0.19443 0.028762,-0.0688 0.057524,-0.14122 0.086285,-0.21684 0.028762,-0.0756 0.057524,-0.15442 0.086285,-0.23579 0.028762,-0.0812 0.057524,-0.16521 0.086285,-0.2508 0.028762,-0.0856 0.057524,-0.17323 0.086286,-0.26176 0.028762,-0.0886 0.057524,-0.17821 0.086285,-0.26837 0.028762,-0.09 0.057524,-0.18043 0.086285,-0.27061 0.028762,-0.0899 0.057524,-0.17982 0.086285,-0.26837 0.028762,-0.0886 0.057524,-0.17603 0.086285,-0.26173 0.028762,-0.0856 0.057524,-0.16942 0.086285,-0.25083 0.028762,-0.0815 0.057524,-0.16002 0.086286,-0.23578 0.028762,-0.0756 0.057524,-0.14821 0.086285,-0.21685 0.028762,-0.0688 0.057524,-0.13362 0.086285,-0.19443 0.028762,-0.0606 0.057524,-0.11698 0.086285,-0.16862 0.028762,-0.0516 0.057524,-0.0986 0.086285,-0.14022 0.028762,-0.0418 0.057524,-0.0785 0.086285,-0.10966 0.028762,-0.0312 0.057524,-0.0568 0.086285,-0.077 0.028762,-0.02 0.057524,-0.0343 0.086285,-0.0432 0.028762,-0.008 0.057524,-0.0118 0.086285,-0.008 0.028763,0.003 0.057524,0.0118 0.086285,0.026 0.028762,0.014 0.057524,0.0346 0.086286,0.0602 0.028762,0.0256 0.057524,0.0571 0.086285,0.0935 0.028762,0.0365 0.057524,0.0785 0.086285,0.1252 0.028762,0.0467 0.057524,0.0986 0.086285,0.1548 0.028763,0.0563 0.057524,0.11698 0.086285,0.18184 0.028762,0.0648 0.057524,0.1336 0.086285,0.20603 0.028763,0.0725 0.057524,0.14822 0.086286,0.2268 0.028762,0.0786 0.057524,0.16021 0.086285,0.24379 0.028762,0.0836 0.057524,0.16941 0.086285,0.2568 0.028762,0.0875 0.057524,0.17603 0.086286,0.26561 0.028762,0.0896 0.057524,0.17982 0.086285,0.27006"
       style="opacity:1;fill:#bebebe;fill-opacity:1;fill-rule:nonzero;stroke:none;stroke-width:0.6337381;stroke-miterlimit:4;stroke-dasharray:none;stroke-opacity:1"
       inkscape:connector-curvature="0" />
  </g>
</svg>
