<?xml version="1.0" encoding="UTF-8" standalone="no"?>
<!-- Created with Inkscape (http://www.inkscape.org/) -->

<svg
   xmlns:dc="http://purl.org/dc/elements/1.1/"
   xmlns:cc="http://creativecommons.org/ns#"
   xmlns:rdf="http://www.w3.org/1999/02/22-rdf-syntax-ns#"
   xmlns:svg="http://www.w3.org/2000/svg"
   xmlns="http://www.w3.org/2000/svg"
   xmlns:sodipodi="http://sodipodi.sourceforge.net/DTD/sodipodi-0.dtd"
   xmlns:inkscape="http://www.inkscape.org/namespaces/inkscape"
   width="24.000113"
   height="23.999428"
   viewBox="0 0 6.3500299 6.3498484"
   version="1.1"
   id="svg8"
   inkscape:version="0.92.2 5c3e80d, 2017-08-06"
   sodipodi:docname="signal.svg">
  <sodipodi:namedview
     id="base"
     pagecolor="#ffffff"
     bordercolor="#666666"
     borderopacity="1.0"
     inkscape:pageopacity="0.0"
     inkscape:pageshadow="2"
     inkscape:zoom="25.750614"
     inkscape:cx="12.000056"
     inkscape:cy="11.999714"
     inkscape:document-units="mm"
     inkscape:current-layer="layer1"
     showgrid="false"
     inkscape:window-width="1728"
     inkscape:window-height="820"
     inkscape:window-x="59"
     inkscape:window-y="81"
     inkscape:window-maximized="0"
     fit-margin-top="0"
     fit-margin-left="0"
     fit-margin-right="0"
     fit-margin-bottom="0"
     units="px" />
  <defs
     id="defs2" />
  <metadata
     id="metadata5">
    <rdf:RDF>
      <cc:Work
         rdf:about="">
        <dc:format>image/svg+xml</dc:format>
        <dc:type
           rdf:resource="http://purl.org/dc/dcmitype/StillImage" />
        <dc:title></dc:title>
      </cc:Work>
    </rdf:RDF>
  </metadata>
  <g
     id="layer1"
     inkscape:groupmode="layer"
     inkscape:label="Layer 1"
     transform="translate(-5.328485,-199.36701)">
    <path
       id="path925"
       title="t sin(t)"
       d="m 5.3649567,202.54192 c 0.072151,0.22654 0.1443008,0.45306 0.2164513,0.67431 0.072151,0.22124 0.1443007,0.43716 0.2164512,0.64277 0.07215,0.20561 0.144301,0.40083 0.2164513,0.58119 0.072151,0.18036 0.1443009,0.34575 0.2164512,0.49243 0.07215,0.14668 0.1443009,0.27451 0.2164513,0.38064 0.072151,0.10614 0.1443009,0.19043 0.2164513,0.25106 0.07215,0.0606 0.1443008,0.0974 0.2164512,0.10973 0.07215,0.0123 0.1443009,-9e-5 0.2164512,-0.0367 0.07215,-0.0366 0.1443009,-0.0976 0.2164513,-0.18146 0.07215,-0.0838 0.1443009,-0.1906 0.2164513,-0.31771 0.07215,-0.12711 0.1443008,-0.27467 0.2164512,-0.43911 0.07215,-0.16445 0.1443009,-0.34588 0.2164512,-0.53998 0.07215,-0.19409 0.1443009,-0.40092 0.2164516,-0.61558 0.07215,-0.21468 0.1443007,-0.43723 0.216451,-0.66243 0.07215,-0.22521 0.1443009,-0.45307 0.2164515,-0.67828 0.07215,-0.22521 0.1443007,-0.44774 0.2164513,-0.66243 0.07215,-0.21468 0.1443004,-0.42146 0.216451,-0.61558 0.07215,-0.19413 0.1443006,-0.3755 0.2164514,-0.53998 0.072151,-0.16448 0.1443011,-0.31196 0.216451,-0.43911 0.07215,-0.12715 0.1443011,-0.23384 0.2164513,-0.31771 0.072151,-0.0839 0.1443013,-0.14479 0.2164512,-0.18146 0.072151,-0.0367 0.144301,-0.049 0.216451,-0.0367 0.07215,0.0122 0.144301,0.0491 0.216452,0.10973 0.07215,0.0606 0.144301,0.14497 0.216451,0.25106 0.07215,0.10609 0.144301,0.234 0.216452,0.38064 0.07215,0.14664 0.1443,0.3121 0.216451,0.49243 0.07215,0.18032 0.144301,0.3756 0.216451,0.5812 0.07215,0.20558 0.144301,0.42153 0.216451,0.64276 0.07215,0.22124 0.144302,0.44777 0.216451,0.67431"
       style="opacity:1;fill:none;fill-opacity:1;stroke:#000000;stroke-width:0.07655353;stroke-miterlimit:4;stroke-dasharray:none;stroke-opacity:1"
       inkscape:connector-curvature="0" />
  </g>
</svg>
